<svg xmlns="http://www.w3.org/2000/svg" id="Livello_2" data-name="Livello 2" viewBox="0 0 112.37 102.03">
  <defs>
    <style>
      .cls-1 {
        fill: #fff;
      }

      .cls-2 {
        fill: #be9c93;
      }
    </style>
  </defs>
  <g id="Livello_1-2" data-name="Livello 1">
    <path class="cls-1" d="m24.19,102.03c5.77,0,11.01-.98,14.82-2.36v-15.73l4.46-1.18v-3.54h-18.94v3.54l5.44,1.18v12.13c-1.51.46-3.47.98-6.23.98-9.77,0-13.63-6.88-13.63-20.39,0-11.47,4.46-18.68,13.5-18.68,3.47,0,6.16.59,8,1.57l2.23,7.54h4.98l-.53-12.13c-2.95-1.05-7.8-1.9-13.83-1.9C11.93,53.06.26,59.28.26,77.97c0,17.24,9.05,24.06,23.93,24.06"/>
    <path class="cls-1" d="m60.75,99.81h8.34l5.15-19.03c1.4-5.28,3.37-15.66,3.37-15.66h.32s1.65,10.37,3.06,15.66l4.96,19.03h8.21l10.5-41.31,4.26-1.15v-3.44h-14.7v3.44l4.65,1.15-3.12,13.56c-1.53,6.75-4.33,19.67-4.33,19.67h-.32s-2.35-12.92-4.01-19.29l-4.9-18.52h-6.3l-4.9,18.9c-1.65,6.43-4.14,18.9-4.14,18.9h-.32s-2.29-11.97-3.95-19.29l-3.18-13.94,4.52-1.15v-3.44h-17.57v3.44l3.82,1.15,10.57,41.31Z"/>
    <polygon class="cls-2" points="0 46.15 19.52 46.15 19.52 42.7 14.4 41.54 14.4 24.65 32.01 24.65 32.01 41.54 26.89 42.7 26.89 46.15 46.41 46.15 46.41 42.7 41.1 41.48 41.1 4.61 46.35 3.46 46.35 0 26.89 0 26.89 3.46 32.01 4.61 32.01 20.42 14.4 20.42 14.4 4.61 19.52 3.46 19.52 0 0 0 0 3.46 5.31 4.61 5.31 41.48 0 42.7 0 46.15"/>
    <path class="cls-2" d="m63.91,46.15h8.39l5.19-19.14c1.41-5.31,3.39-15.75,3.39-15.75h.32s1.66,10.43,3.07,15.75l4.99,19.14h8.26l10.56-41.54,4.29-1.15V0h-14.79v3.46l4.67,1.15-3.14,13.64c-1.54,6.78-4.35,19.78-4.35,19.78h-.32s-2.37-13-4.03-19.4L85.49,0h-6.34l-4.93,19.01c-1.66,6.47-4.16,19.01-4.16,19.01h-.32s-2.3-12.03-3.97-19.4l-3.2-14.02,4.54-1.15V0h-17.67v3.46l3.84,1.15,10.63,41.54Z"/>
  </g>
</svg>