<svg xmlns="http://www.w3.org/2000/svg" id="Livello_1" data-name="Livello 1" viewBox="0 0 1908.89 120">
  <defs>
    <style>
      .cls-1 {
        fill: #2f2a19;
      }

      .cls-2 {
        fill: #8e1c15;
      }
    </style>
  </defs>
  <polygon class="cls-2" points="0 1.36 19.07 1.36 19.07 45 68.18 45 68.18 1.36 87.25 1.36 87.25 118.62 68.18 118.62 68.18 64.08 19.07 64.08 19.07 118.62 0 118.62 0 1.36"/>
  <path class="cls-2" d="M125.76,74.32V1.37h19.07v72.96c0,14.49,12.12,26.58,26.58,26.58h2.4c14.49,0,25.23-11.92,25.23-26.58V1.37h19.1v72.96c0,12.26-4.44,23.35-12.45,32.05-8.34,8.86-19.6,13.61-31.88,13.61h-2.4c-12.26,0-23.66-4.58-32.35-13.28-8.69-8.7-13.3-20.12-13.3-32.38"/>
  <polygon class="cls-2" points="256.64 1.36 275.72 1.36 304.21 52.35 332.66 1.36 351.93 1.36 351.93 118.62 332.83 118.62 332.83 40.23 310.33 80.45 297.91 80.45 275.72 40.59 275.72 118.62 256.64 118.62 256.64 1.36"/>
  <path class="cls-2" d="M449.89,72.28l-16.18-45.68-16.04,45.68h32.21ZM422.29,1.36h22.66l41.43,117.26h-20.12l-9.72-27.27h-45.68l-9.55,27.27h-20.1L422.29,1.36Z"/>
  <polygon class="cls-2" points="515.67 1.36 534.24 1.36 588.79 83.51 588.95 1.36 608.05 1.36 607.89 118.62 589.31 118.62 534.74 36.64 534.74 118.62 515.67 118.62 515.67 1.36"/>
  <rect class="cls-2" x="649.1" y="1.36" width="19.07" height="117.26"/>
  <polygon class="cls-2" points="733.32 20.45 698.01 20.45 698.01 1.38 787.86 1.38 787.86 20.45 752.39 20.45 752.39 118.64 733.32 118.64 733.32 20.45"/>
  <rect class="cls-2" x="817.64" y="1.36" width="19.1" height="117.26"/>
  <polygon class="cls-2" points="877.83 1.36 948.74 1.2 948.74 20.27 896.9 20.44 896.9 45 940.55 45 940.55 64.08 896.9 64.08 896.9 99.55 951.48 99.55 951.48 118.62 877.83 118.62 877.83 1.36"/>
  <path class="cls-2" d="M983.5,99.54h47.06c6.29,0,11.57-5.27,11.57-11.59v-5.11c0-5.63-4.09-10.9-10.74-11.59l-27.27-3.59c-15.51-1.68-27.44-14.99-27.44-30.5v-5.13c0-16.67,14-30.67,30.69-30.67h42.95v19.1h-42.95c-6.32,0-11.59,5.27-11.59,11.57v5.13c0,5.96,4.42,10.9,10.38,11.4l27.63,3.75c15.51,1.71,27.44,15.02,27.44,30.53v5.11c0,16.7-13.97,30.67-30.67,30.67h-47.06v-19.07Z"/>
  <path class="cls-1" d="M1088.99,43.12C1088.99,19.41,1108.42,0,1132.1,0h6.49c23.68,0,43.12,19.41,43.12,43.12h-19.07c0-13.11-10.93-24.04-24.04-24.04h-6.49c-13.11,0-24.04,10.93-24.04,24.04v33.76c0,13.11,10.93,24.01,24.04,24.01h6.49c13.11,0,24.04-10.9,24.04-24.01h19.07c0,23.68-19.43,43.12-43.12,43.12h-6.49c-23.68,0-43.12-19.43-43.12-43.12v-33.76Z"/>
  <path class="cls-1" d="M1257.71,100.92c13.11,0,24.04-10.93,24.04-24.04v-33.76c0-13.11-10.93-24.01-24.04-24.01h-6.49c-13.11,0-24.04,10.9-24.04,24.01v33.76c0,13.11,10.93,24.04,24.04,24.04h6.49ZM1208.11,76.88v-33.76c0-11.57,4.44-22.33,12.61-30.5,8.17-8.17,18.94-12.61,30.5-12.61h6.49c11.57,0,22.33,4.44,30.5,12.61,8.2,8.17,12.61,18.94,12.61,30.5v33.76c0,11.59-4.42,22.33-12.61,30.5-8.17,8.2-18.94,12.61-30.5,12.61h-6.49c-11.57,0-22.33-4.42-30.5-12.61-8.17-8.17-12.61-18.91-12.61-30.5"/>
  <polygon class="cls-1" points="1337.11 1.36 1355.69 1.36 1410.24 83.51 1410.4 1.36 1429.5 1.36 1429.31 118.62 1410.76 118.62 1356.19 36.64 1356.19 118.62 1337.11 118.62 1337.11 1.36"/>
  <polygon class="cls-1" points="1470.55 1.36 1489.12 1.36 1543.67 83.51 1543.83 1.36 1562.93 1.36 1562.74 118.62 1544.19 118.62 1489.62 36.64 1489.62 118.62 1470.55 118.62 1470.55 1.36"/>
  <polygon class="cls-1" points="1603.98 1.36 1674.89 1.2 1674.89 20.27 1623.05 20.44 1623.05 45 1666.69 45 1666.69 64.08 1623.05 64.08 1623.05 99.55 1677.62 99.55 1677.62 118.62 1603.98 118.62 1603.98 1.36"/>
  <path class="cls-1" d="M1705.72,43.12C1705.72,19.41,1725.16,0,1748.84,0h6.49c23.68,0,43.12,19.41,43.12,43.12h-19.07c0-13.11-10.93-24.04-24.04-24.04h-6.49c-13.11,0-24.04,10.93-24.04,24.04v33.76c0,13.11,10.93,24.01,24.04,24.01h6.49c13.11,0,24.04-10.9,24.04-24.01h19.07c0,23.68-19.43,43.12-43.12,43.12h-6.49c-23.68,0-43.12-19.43-43.12-43.12v-33.76Z"/>
  <polygon class="cls-1" points="1854.34 20.45 1819.04 20.45 1819.04 1.38 1908.89 1.38 1908.89 20.45 1873.41 20.45 1873.41 118.64 1854.34 118.64 1854.34 20.45"/>
</svg>